<svg width="84" height="83" viewBox="0 0 84 83" fill="none" xmlns="http://www.w3.org/2000/svg">
<g filter="url(#filter0_dd_149_291)">
<path d="M38.875 15.3033H21.0833C19.7351 15.3033 18.4422 15.8301 17.4889 16.7678C16.5356 17.7054 16 18.9772 16 20.3033V55.3033C16 56.6294 16.5356 57.9011 17.4889 58.8388C18.4422 59.7765 19.7351 60.3033 21.0833 60.3033H56.6667C58.0149 60.3033 59.3078 59.7765 60.2611 58.8388C61.2144 57.9011 61.75 56.6294 61.75 55.3033V37.8033M57.9375 11.5533C58.9486 10.5587 60.32 10 61.75 10C63.18 10 64.5514 10.5587 65.5625 11.5533C66.5736 12.5479 67.1417 13.8968 67.1417 15.3033C67.1417 16.7098 66.5736 18.0587 65.5625 19.0533L41.4167 42.8033L31.25 45.3033L33.7917 35.3033L57.9375 11.5533Z" stroke="#1E1E1E" stroke-width="4" stroke-linecap="round" stroke-linejoin="round"/>
</g>
<defs>
<filter id="filter0_dd_149_291" x="-3.08337" y="-2.69666" width="89" height="88" filterUnits="userSpaceOnUse" color-interpolation-filters="sRGB">
<feFlood flood-opacity="0" result="BackgroundImageFix"/>
<feColorMatrix in="SourceAlpha" type="matrix" values="0 0 0 0 0 0 0 0 0 0 0 0 0 0 0 0 0 0 127 0" result="hardAlpha"/>
<feOffset dy="2"/>
<feGaussianBlur stdDeviation="1.5"/>
<feColorMatrix type="matrix" values="0 0 0 0 0 0 0 0 0 0 0 0 0 0 0 0 0 0 0.3 0"/>
<feBlend mode="normal" in2="BackgroundImageFix" result="effect1_dropShadow_149_291"/>
<feColorMatrix in="SourceAlpha" type="matrix" values="0 0 0 0 0 0 0 0 0 0 0 0 0 0 0 0 0 0 127 0" result="hardAlpha"/>
<feMorphology radius="4" operator="dilate" in="SourceAlpha" result="effect2_dropShadow_149_291"/>
<feOffset dy="6"/>
<feGaussianBlur stdDeviation="5"/>
<feColorMatrix type="matrix" values="0 0 0 0 0 0 0 0 0 0 0 0 0 0 0 0 0 0 0.15 0"/>
<feBlend mode="normal" in2="effect1_dropShadow_149_291" result="effect2_dropShadow_149_291"/>
<feBlend mode="normal" in="SourceGraphic" in2="effect2_dropShadow_149_291" result="shape"/>
</filter>
</defs>
</svg>
