<svg width="77" height="76" viewBox="0 0 77 76" fill="none" xmlns="http://www.w3.org/2000/svg">
<g filter="url(#filter0_dd_304_951)">
<g filter="url(#filter1_dd_304_951)">
<path d="M41.8665 49.7274C41.5096 50.3152 40.9975 50.8031 40.3812 51.1422C39.765 51.4814 39.0664 51.6599 38.3553 51.6599C37.6441 51.6599 36.9455 51.4814 36.3293 51.1422C35.713 50.8031 35.2009 50.3152 34.844 49.7274M50.5328 24.5153C50.5328 21.4291 49.2498 18.4694 46.9661 16.2871C44.6824 14.1049 41.5849 12.8789 38.3553 12.8789C35.1256 12.8789 32.0281 14.1049 29.7444 16.2871C27.4607 18.4694 26.1777 21.4291 26.1777 24.5153C26.1777 38.091 20.0889 41.9698 20.0889 41.9698H56.6216C56.6216 41.9698 50.5328 38.091 50.5328 24.5153Z" stroke="#CF5E44" stroke-width="4" stroke-linecap="round" stroke-linejoin="round"/>
</g>
</g>
<defs>
<filter id="filter0_dd_304_951" x="2" y="-3" width="72" height="72" filterUnits="userSpaceOnUse" color-interpolation-filters="sRGB">
<feFlood flood-opacity="0" result="BackgroundImageFix"/>
<feColorMatrix in="SourceAlpha" type="matrix" values="0 0 0 0 0 0 0 0 0 0 0 0 0 0 0 0 0 0 127 0" result="hardAlpha"/>
<feMorphology radius="1" operator="dilate" in="SourceAlpha" result="effect1_dropShadow_304_951"/>
<feOffset dy="1"/>
<feGaussianBlur stdDeviation="1.5"/>
<feColorMatrix type="matrix" values="0 0 0 0 0 0 0 0 0 0 0 0 0 0 0 0 0 0 0.15 0"/>
<feBlend mode="normal" in2="BackgroundImageFix" result="effect1_dropShadow_304_951"/>
<feColorMatrix in="SourceAlpha" type="matrix" values="0 0 0 0 0 0 0 0 0 0 0 0 0 0 0 0 0 0 127 0" result="hardAlpha"/>
<feOffset dy="1"/>
<feGaussianBlur stdDeviation="1"/>
<feColorMatrix type="matrix" values="0 0 0 0 0 0 0 0 0 0 0 0 0 0 0 0 0 0 0.3 0"/>
<feBlend mode="normal" in2="effect1_dropShadow_304_951" result="effect2_dropShadow_304_951"/>
<feBlend mode="normal" in="SourceGraphic" in2="effect2_dropShadow_304_951" result="shape"/>
</filter>
<filter id="filter1_dd_304_951" x="0" y="1" width="76.7104" height="74.5454" filterUnits="userSpaceOnUse" color-interpolation-filters="sRGB">
<feFlood flood-opacity="0" result="BackgroundImageFix"/>
<feColorMatrix in="SourceAlpha" type="matrix" values="0 0 0 0 0 0 0 0 0 0 0 0 0 0 0 0 0 0 127 0" result="hardAlpha"/>
<feOffset dy="2"/>
<feGaussianBlur stdDeviation="1.5"/>
<feColorMatrix type="matrix" values="0 0 0 0 0 0 0 0 0 0 0 0 0 0 0 0 0 0 0.3 0"/>
<feBlend mode="normal" in2="BackgroundImageFix" result="effect1_dropShadow_304_951"/>
<feColorMatrix in="SourceAlpha" type="matrix" values="0 0 0 0 0 0 0 0 0 0 0 0 0 0 0 0 0 0 127 0" result="hardAlpha"/>
<feMorphology radius="4" operator="dilate" in="SourceAlpha" result="effect2_dropShadow_304_951"/>
<feOffset dy="6"/>
<feGaussianBlur stdDeviation="5"/>
<feColorMatrix type="matrix" values="0 0 0 0 0 0 0 0 0 0 0 0 0 0 0 0 0 0 0.15 0"/>
<feBlend mode="normal" in2="effect1_dropShadow_304_951" result="effect2_dropShadow_304_951"/>
<feBlend mode="normal" in="SourceGraphic" in2="effect2_dropShadow_304_951" result="shape"/>
</filter>
</defs>
</svg>
