<svg width="76" height="76" viewBox="0 0 76 76" fill="none" xmlns="http://www.w3.org/2000/svg">
<g clip-path="url(#clip0_149_561)" filter="url(#filter0_dd_149_561)">
<path d="M38 38C41.3137 38 44 35.3137 44 32C44 28.6863 41.3137 26 38 26C34.6863 26 32 28.6863 32 32C32 35.3137 34.6863 38 38 38Z" stroke="#1E1E1E" stroke-width="4" stroke-linecap="round" stroke-linejoin="round"/>
<path d="M52.8 38C52.5338 38.6032 52.4544 39.2724 52.572 39.9212C52.6896 40.57 52.9989 41.1686 53.46 41.64L53.58 41.76C53.9519 42.1315 54.2469 42.5726 54.4482 43.0582C54.6495 43.5438 54.7531 44.0643 54.7531 44.59C54.7531 45.1157 54.6495 45.6362 54.4482 46.1218C54.2469 46.6074 53.9519 47.0485 53.58 47.42C53.2085 47.7919 52.7674 48.0869 52.2818 48.2882C51.7962 48.4895 51.2757 48.5931 50.75 48.5931C50.2243 48.5931 49.7038 48.4895 49.2182 48.2882C48.7326 48.0869 48.2915 47.7919 47.92 47.42L47.8 47.3C47.3286 46.8389 46.73 46.5296 46.0812 46.412C45.4324 46.2944 44.7632 46.3738 44.16 46.64C43.5685 46.8935 43.064 47.3145 42.7086 47.8511C42.3533 48.3877 42.1626 49.0164 42.16 49.66V50C42.16 51.0609 41.7386 52.0783 40.9884 52.8284C40.2383 53.5786 39.2209 54 38.16 54C37.0991 54 36.0817 53.5786 35.3316 52.8284C34.5814 52.0783 34.16 51.0609 34.16 50V49.82C34.1445 49.158 33.9302 48.516 33.545 47.9774C33.1598 47.4388 32.6215 47.0286 32 46.8C31.3968 46.5338 30.7276 46.4544 30.0788 46.572C29.43 46.6896 28.8314 46.9989 28.36 47.46L28.24 47.58C27.8685 47.9519 27.4274 48.2469 26.9418 48.4482C26.4562 48.6495 25.9357 48.7531 25.41 48.7531C24.8843 48.7531 24.3638 48.6495 23.8782 48.4482C23.3926 48.2469 22.9515 47.9519 22.58 47.58C22.2081 47.2085 21.9131 46.7674 21.7118 46.2818C21.5105 45.7962 21.4069 45.2757 21.4069 44.75C21.4069 44.2243 21.5105 43.7038 21.7118 43.2182C21.9131 42.7326 22.2081 42.2915 22.58 41.92L22.7 41.8C23.1611 41.3286 23.4704 40.73 23.588 40.0812C23.7056 39.4324 23.6262 38.7632 23.36 38.16C23.1065 37.5685 22.6855 37.064 22.1489 36.7086C21.6124 36.3533 20.9836 36.1626 20.34 36.16H20C18.9391 36.16 17.9217 35.7386 17.1716 34.9884C16.4214 34.2383 16 33.2209 16 32.16C16 31.0991 16.4214 30.0817 17.1716 29.3316C17.9217 28.5814 18.9391 28.16 20 28.16H20.18C20.842 28.1445 21.484 27.9302 22.0226 27.545C22.5612 27.1598 22.9714 26.6215 23.2 26C23.4662 25.3968 23.5456 24.7276 23.428 24.0788C23.3104 23.43 23.0011 22.8314 22.54 22.36L22.42 22.24C22.0481 21.8685 21.7531 21.4274 21.5518 20.9418C21.3505 20.4562 21.2469 19.9357 21.2469 19.41C21.2469 18.8843 21.3505 18.3638 21.5518 17.8782C21.7531 17.3926 22.0481 16.9515 22.42 16.58C22.7915 16.2081 23.2326 15.9131 23.7182 15.7118C24.2038 15.5105 24.7243 15.4069 25.25 15.4069C25.7757 15.4069 26.2962 15.5105 26.7818 15.7118C27.2674 15.9131 27.7085 16.2081 28.08 16.58L28.2 16.7C28.6714 17.1611 29.27 17.4704 29.9188 17.588C30.5676 17.7056 31.2368 17.6262 31.84 17.36H32C32.5915 17.1065 33.096 16.6855 33.4514 16.1489C33.8067 15.6124 33.9974 14.9836 34 14.34V14C34 12.9391 34.4214 11.9217 35.1716 11.1716C35.9217 10.4214 36.9391 10 38 10C39.0609 10 40.0783 10.4214 40.8284 11.1716C41.5786 11.9217 42 12.9391 42 14V14.18C42.0026 14.8236 42.1933 15.4524 42.5486 15.9889C42.904 16.5255 43.4085 16.9465 44 17.2C44.6032 17.4662 45.2724 17.5456 45.9212 17.428C46.57 17.3104 47.1686 17.0011 47.64 16.54L47.76 16.42C48.1315 16.0481 48.5726 15.7531 49.0582 15.5518C49.5438 15.3505 50.0643 15.2469 50.59 15.2469C51.1157 15.2469 51.6362 15.3505 52.1218 15.5518C52.6074 15.7531 53.0485 16.0481 53.42 16.42C53.7919 16.7915 54.0869 17.2326 54.2882 17.7182C54.4895 18.2038 54.5931 18.7243 54.5931 19.25C54.5931 19.7757 54.4895 20.2962 54.2882 20.7818C54.0869 21.2674 53.7919 21.7085 53.42 22.08L53.3 22.2C52.8389 22.6714 52.5296 23.27 52.412 23.9188C52.2944 24.5676 52.3738 25.2368 52.64 25.84V26C52.8935 26.5915 53.3145 27.096 53.8511 27.4514C54.3877 27.8067 55.0164 27.9974 55.66 28H56C57.0609 28 58.0783 28.4214 58.8284 29.1716C59.5786 29.9217 60 30.9391 60 32C60 33.0609 59.5786 34.0783 58.8284 34.8284C58.0783 35.5786 57.0609 36 56 36H55.82C55.1764 36.0026 54.5477 36.1933 54.0111 36.5486C53.4745 36.904 53.0535 37.4085 52.8 38Z" stroke="#1E1E1E" stroke-width="4" stroke-linecap="round" stroke-linejoin="round"/>
</g>
<defs>
<filter id="filter0_dd_149_561" x="0" y="0" width="76" height="76" filterUnits="userSpaceOnUse" color-interpolation-filters="sRGB">
<feFlood flood-opacity="0" result="BackgroundImageFix"/>
<feColorMatrix in="SourceAlpha" type="matrix" values="0 0 0 0 0 0 0 0 0 0 0 0 0 0 0 0 0 0 127 0" result="hardAlpha"/>
<feOffset dy="2"/>
<feGaussianBlur stdDeviation="1.5"/>
<feColorMatrix type="matrix" values="0 0 0 0 0 0 0 0 0 0 0 0 0 0 0 0 0 0 0.3 0"/>
<feBlend mode="normal" in2="BackgroundImageFix" result="effect1_dropShadow_149_561"/>
<feColorMatrix in="SourceAlpha" type="matrix" values="0 0 0 0 0 0 0 0 0 0 0 0 0 0 0 0 0 0 127 0" result="hardAlpha"/>
<feMorphology radius="4" operator="dilate" in="SourceAlpha" result="effect2_dropShadow_149_561"/>
<feOffset dy="6"/>
<feGaussianBlur stdDeviation="5"/>
<feColorMatrix type="matrix" values="0 0 0 0 0 0 0 0 0 0 0 0 0 0 0 0 0 0 0.15 0"/>
<feBlend mode="normal" in2="effect1_dropShadow_149_561" result="effect2_dropShadow_149_561"/>
<feBlend mode="normal" in="SourceGraphic" in2="effect2_dropShadow_149_561" result="shape"/>
</filter>
<clipPath id="clip0_149_561">
<rect width="48" height="48" fill="white" transform="translate(14 8)"/>
</clipPath>
</defs>
</svg>
